<?xml version="1.0" encoding="utf-8"?>
<!-- Generator: Adobe Illustrator 16.0.0, SVG Export Plug-In . SVG Version: 6.00 Build 0)  -->
<!DOCTYPE svg PUBLIC "-//W3C//DTD SVG 1.1//EN" "http://www.w3.org/Graphics/SVG/1.1/DTD/svg11.dtd">
<svg version="1.1" id="Layer_1" xmlns="http://www.w3.org/2000/svg" xmlns:xlink="http://www.w3.org/1999/xlink" x="0px" y="0px"
	 width="300px" height="93.6px" viewBox="0 3.7 300 93.6" enable-background="new 0 3.7 300 93.6" xml:space="preserve">
<g>
	<g>
		<g>
			
				<radialGradient id="SVGID_1_" cx="223.043" cy="-38.5" r="44.9709" gradientTransform="matrix(1 0 0 -1 -180 12)" gradientUnits="userSpaceOnUse">
				<stop  offset="0" style="stop-color:#264577"/>
				<stop  offset="1" style="stop-color:#182F58"/>
			</radialGradient>
			<path fill="url(#SVGID_1_)" d="M43.044,97.206c-0.192,0-0.385-0.052-0.557-0.15L0.434,75.744
				c-0.345-0.199-0.558-0.566-0.558-0.968V26.22c0-0.397,0.214-0.766,0.558-0.966L42.486,3.943c0.345-0.199,0.771-0.199,1.115,0
				l42.053,21.311c0.344,0.2,0.556,0.569,0.556,0.966v48.556c0,0.399-0.212,0.769-0.556,0.968L43.601,97.056
				C43.429,97.154,43.237,97.206,43.044,97.206z"/>
		</g>
		<path fill="#FFFFFF" d="M9.911,69.295c0,0.232-0.186,0.418-0.415,0.418l0,0c-0.229,0-0.416-0.186-0.416-0.418V31.877
			c0-0.23,0.186-0.415,0.416-0.415l0,0c0.229,0,0.415,0.185,0.415,0.415V69.295z"/>
		
			<linearGradient id="SVGID_2_" gradientUnits="userSpaceOnUse" x1="187.8477" y1="-38.7412" x2="198.6592" y2="-38.7412" gradientTransform="matrix(1 0 0 -1 -180 12)">
			<stop  offset="0" style="stop-color:#7BB2D2"/>
			<stop  offset="0.0478" style="stop-color:#7EB7D8"/>
			<stop  offset="0.1784" style="stop-color:#85C1E4"/>
			<stop  offset="0.3216" style="stop-color:#89C8EC"/>
			<stop  offset="0.5" style="stop-color:#8CCBF0"/>
			<stop  offset="0.6784" style="stop-color:#89C8EC"/>
			<stop  offset="0.8216" style="stop-color:#85C1E4"/>
			<stop  offset="0.9522" style="stop-color:#7EB7D8"/>
			<stop  offset="1" style="stop-color:#7BB2D2"/>
		</linearGradient>
		<path fill="url(#SVGID_2_)" d="M7.848,71.692c0,0.643,2.42,1.166,5.405,1.166c2.987,0,5.406-0.521,5.406-1.166V29.79
			c0-0.644-2.418-1.166-5.406-1.166c-2.986,0-5.405,0.521-5.405,1.166V71.692z"/>
		
			<linearGradient id="SVGID_3_" gradientUnits="userSpaceOnUse" x1="247.3203" y1="-38.7998" x2="258.1309" y2="-38.7998" gradientTransform="matrix(1 0 0 -1 -180 12)">
			<stop  offset="0" style="stop-color:#7BB2D2"/>
			<stop  offset="0.0478" style="stop-color:#7EB7D8"/>
			<stop  offset="0.1784" style="stop-color:#85C1E4"/>
			<stop  offset="0.3216" style="stop-color:#89C8EC"/>
			<stop  offset="0.5" style="stop-color:#8CCBF0"/>
			<stop  offset="0.6784" style="stop-color:#89C8EC"/>
			<stop  offset="0.8216" style="stop-color:#85C1E4"/>
			<stop  offset="0.9522" style="stop-color:#7EB7D8"/>
			<stop  offset="1" style="stop-color:#7BB2D2"/>
		</linearGradient>
		<path fill="url(#SVGID_3_)" d="M67.321,71.748c0,0.646,2.419,1.171,5.405,1.171c2.985,0,5.405-0.523,5.405-1.171V29.847
			c0-0.644-2.42-1.167-5.405-1.167c-2.985,0-5.405,0.522-5.405,1.167V71.748z"/>
		
			<linearGradient id="SVGID_4_" gradientUnits="userSpaceOnUse" x1="195.8965" y1="-38.7207" x2="196.7265" y2="-38.7207" gradientTransform="matrix(1 0 0 -1 -180 12)">
			<stop  offset="0" style="stop-color:#F1F2F2"/>
			<stop  offset="0.2187" style="stop-color:#FAFAFA"/>
			<stop  offset="0.5" style="stop-color:#FFFFFF"/>
			<stop  offset="0.7813" style="stop-color:#FAFAFA"/>
			<stop  offset="1" style="stop-color:#F1F2F2"/>
		</linearGradient>
		<path fill="url(#SVGID_4_)" d="M16.727,69.428c0,0.229-0.186,0.418-0.415,0.418l0,0c-0.229,0-0.415-0.188-0.415-0.418V32.009
			c0-0.229,0.186-0.414,0.415-0.414l0,0c0.229,0,0.415,0.185,0.415,0.414V69.428z"/>
		<g>
			
				<linearGradient id="SVGID_5_" gradientUnits="userSpaceOnUse" x1="393.0254" y1="-26.4697" x2="406.5811" y2="-26.4697" gradientTransform="matrix(-1 0 0 -1 419.8652 12)">
				<stop  offset="0" style="stop-color:#448BAE"/>
				<stop  offset="0.5" style="stop-color:#51A6CF"/>
			</linearGradient>
			<path fill="url(#SVGID_5_)" d="M23.647,45.713L13.288,31.338c0,0-0.009-0.06,0.004-0.063c1.025-0.132,2.651,0.013,3.68,0.345
				l9.868,13.892L23.647,45.713z"/>
		</g>
		<g>
			
				<linearGradient id="SVGID_6_" gradientUnits="userSpaceOnUse" x1="379.29" y1="-38.6167" x2="395.5566" y2="-38.6167" gradientTransform="matrix(-1 0 0 -1 419.8652 12)">
				<stop  offset="0" style="stop-color:#448BAE"/>
				<stop  offset="0.5" style="stop-color:#51A6CF"/>
			</linearGradient>
			<path fill="url(#SVGID_6_)" d="M24.309,59.389l13.074-17.343l3.192-0.201L27.5,59.186L24.309,59.389z"/>
		</g>
		<g>
			
				<linearGradient id="SVGID_7_" gradientUnits="userSpaceOnUse" x1="193.2734" y1="-30.0581" x2="217.4082" y2="-30.0581" gradientTransform="matrix(1 0 0 -1 -180 12)">
				<stop  offset="0" style="stop-color:#88C5E9"/>
				<stop  offset="0.5" style="stop-color:#85C1E4"/>
				<stop  offset="0.8252" style="stop-color:#84C0E2"/>
				<stop  offset="0.9633" style="stop-color:#81BCDD"/>
				<stop  offset="1" style="stop-color:#80BADB"/>
			</linearGradient>
			<path fill="url(#SVGID_7_)" d="M13.273,31.253l10.399,14.432l13.735-20.958v17.288L24.306,59.389l-0.995-0.135L13.273,43.021
				V31.253z"/>
		</g>
		
			<linearGradient id="SVGID_8_" gradientUnits="userSpaceOnUse" x1="189.1074" y1="-38.7207" x2="189.9395" y2="-38.7207" gradientTransform="matrix(1 0 0 -1 -180 12)">
			<stop  offset="0" style="stop-color:#F1F2F2"/>
			<stop  offset="0.2187" style="stop-color:#FAFAFA"/>
			<stop  offset="0.5" style="stop-color:#FFFFFF"/>
			<stop  offset="0.7813" style="stop-color:#FAFAFA"/>
			<stop  offset="1" style="stop-color:#F1F2F2"/>
		</linearGradient>
		<path fill="url(#SVGID_8_)" d="M9.939,69.428c0,0.229-0.186,0.418-0.416,0.418l0,0c-0.229,0-0.416-0.188-0.416-0.418V32.009
			c0-0.229,0.187-0.414,0.416-0.414l0,0c0.23,0,0.416,0.185,0.416,0.414V69.428z"/>
		<path fill="#FFFFFF" d="M70.306,69.428c0,0.229-0.186,0.418-0.417,0.418l0,0c-0.229,0-0.414-0.188-0.414-0.418V32.009
			c0-0.229,0.186-0.414,0.414-0.414l0,0c0.23,0,0.417,0.185,0.417,0.414V69.428z"/>
		<g>
			
				<linearGradient id="SVGID_9_" gradientUnits="userSpaceOnUse" x1="239.2188" y1="-26.4697" x2="252.7744" y2="-26.4697" gradientTransform="matrix(1 0 0 -1 -180 12)">
				<stop  offset="0" style="stop-color:#448BAE"/>
				<stop  offset="0.5" style="stop-color:#51A6CF"/>
			</linearGradient>
			<path fill="url(#SVGID_9_)" d="M59.219,45.512l9.868-13.892c1.028-0.332,2.653-0.477,3.679-0.345
				c0.015,0.003,0.004,0.063,0.004,0.063l-10.36,14.375L59.219,45.512z"/>
		</g>
		<g>
			
				<linearGradient id="SVGID_10_" gradientUnits="userSpaceOnUse" x1="228.6475" y1="-30.0781" x2="252.7832" y2="-30.0781" gradientTransform="matrix(1 0 0 -1 -180 12)">
				<stop  offset="0" style="stop-color:#80BADB"/>
				<stop  offset="0.0367" style="stop-color:#81BCDD"/>
				<stop  offset="0.1748" style="stop-color:#84C0E2"/>
				<stop  offset="0.5" style="stop-color:#85C1E4"/>
				<stop  offset="1" style="stop-color:#88C5E9"/>
			</linearGradient>
			<path fill="url(#SVGID_10_)" d="M72.783,43.021l-10.04,16.233l-0.995,0.135L48.647,42.017l0.026-17.249l13.71,20.918
				l10.399-14.431V43.021z"/>
		</g>
		<g>
			
				<linearGradient id="SVGID_11_" gradientUnits="userSpaceOnUse" x1="225.4824" y1="-38.6167" x2="241.748" y2="-38.6167" gradientTransform="matrix(1 0 0 -1 -180 12)">
				<stop  offset="0.0049" style="stop-color:#448BAE"/>
				<stop  offset="0.5" style="stop-color:#51A6CF"/>
			</linearGradient>
			<path fill="url(#SVGID_11_)" d="M58.557,59.186L45.482,41.845l3.191,0.201l13.075,17.343L58.557,59.186z"/>
		</g>
		
			<linearGradient id="SVGID_12_" gradientUnits="userSpaceOnUse" x1="216.585" y1="-38.7974" x2="229.4307" y2="-38.7974" gradientTransform="matrix(1 0 0 -1 -180 12)">
			<stop  offset="0.0049" style="stop-color:#83BEDF"/>
			<stop  offset="0.0757" style="stop-color:#85C1E4"/>
			<stop  offset="0.2645" style="stop-color:#89C8EC"/>
			<stop  offset="0.5" style="stop-color:#8CCBF0"/>
			<stop  offset="0.7378" style="stop-color:#89C8EC"/>
			<stop  offset="0.9285" style="stop-color:#85C1E4"/>
			<stop  offset="1" style="stop-color:#83BEDF"/>
		</linearGradient>
		<path fill="url(#SVGID_12_)" d="M49.431,23.398c0-0.742-2.876-1.345-6.422-1.345c-3.547,0-6.423,0.603-6.423,1.345v54.798
			c0,0.744,2.876,1.345,6.423,1.345c3.546,0,6.422-0.601,6.422-1.345V23.398z"/>
		
			<linearGradient id="SVGID_13_" gradientUnits="userSpaceOnUse" x1="222.541" y1="-38.7988" x2="223.5273" y2="-38.7988" gradientTransform="matrix(1 0 0 -1 -180 12)">
			<stop  offset="0" style="stop-color:#F1F2F2"/>
			<stop  offset="0.2187" style="stop-color:#FAFAFA"/>
			<stop  offset="0.5" style="stop-color:#FFFFFF"/>
			<stop  offset="0.7813" style="stop-color:#FAFAFA"/>
			<stop  offset="1" style="stop-color:#F1F2F2"/>
		</linearGradient>
		<path fill="url(#SVGID_13_)" d="M43.527,76.017c0,0.272-0.221,0.494-0.493,0.494l0,0c-0.273,0-0.494-0.222-0.494-0.494V25.581
			c0-0.272,0.221-0.495,0.494-0.495l0,0c0.272,0,0.493,0.222,0.493,0.495V76.017z"/>
		
			<linearGradient id="SVGID_14_" gradientUnits="userSpaceOnUse" x1="226.4766" y1="-38.7979" x2="227.4629" y2="-38.7979" gradientTransform="matrix(1 0 0 -1 -180 12)">
			<stop  offset="0" style="stop-color:#F1F2F2"/>
			<stop  offset="0.2187" style="stop-color:#FAFAFA"/>
			<stop  offset="0.5" style="stop-color:#FFFFFF"/>
			<stop  offset="0.7813" style="stop-color:#FAFAFA"/>
			<stop  offset="1" style="stop-color:#F1F2F2"/>
		</linearGradient>
		<path fill="url(#SVGID_14_)" d="M47.463,75.616c0,0.271-0.221,0.491-0.492,0.491l0,0c-0.273,0-0.495-0.221-0.495-0.491V25.982
			c0-0.273,0.222-0.494,0.495-0.494l0,0c0.271,0,0.492,0.221,0.492,0.494V75.616z"/>
		
			<linearGradient id="SVGID_15_" gradientUnits="userSpaceOnUse" x1="218.5508" y1="-38.7979" x2="219.5391" y2="-38.7979" gradientTransform="matrix(1 0 0 -1 -180 12)">
			<stop  offset="0" style="stop-color:#F1F2F2"/>
			<stop  offset="0.2187" style="stop-color:#FAFAFA"/>
			<stop  offset="0.5" style="stop-color:#FFFFFF"/>
			<stop  offset="0.7813" style="stop-color:#FAFAFA"/>
			<stop  offset="1" style="stop-color:#F1F2F2"/>
		</linearGradient>
		<path fill="url(#SVGID_15_)" d="M39.539,75.616c0,0.271-0.221,0.491-0.493,0.491l0,0c-0.272,0-0.494-0.221-0.494-0.491V25.982
			c0-0.273,0.222-0.494,0.494-0.494l0,0c0.272,0,0.493,0.221,0.493,0.494V75.616z"/>
		<path fill="#FFFFFF" d="M76.871,69.428c0,0.229-0.185,0.418-0.414,0.418l0,0c-0.229,0-0.417-0.188-0.417-0.418V32.009
			c0-0.229,0.187-0.414,0.417-0.414l0,0c0.229,0,0.414,0.185,0.414,0.414V69.428z"/>
		
			<linearGradient id="SVGID_16_" gradientUnits="userSpaceOnUse" x1="192.4678" y1="-38.7183" x2="193.2988" y2="-38.7183" gradientTransform="matrix(1 0 0 -1 -180 12)">
			<stop  offset="0" style="stop-color:#F1F2F2"/>
			<stop  offset="0.2187" style="stop-color:#FAFAFA"/>
			<stop  offset="0.5" style="stop-color:#FFFFFF"/>
			<stop  offset="0.7813" style="stop-color:#FAFAFA"/>
			<stop  offset="1" style="stop-color:#F1F2F2"/>
		</linearGradient>
		<path fill="url(#SVGID_16_)" d="M13.299,69.766c0,0.23-0.186,0.416-0.415,0.416l0,0c-0.231,0-0.416-0.186-0.416-0.416V31.67
			c0-0.229,0.185-0.416,0.416-0.416l0,0c0.229,0,0.415,0.187,0.415,0.416V69.766z"/>
		<path fill="#FFFFFF" d="M73.557,69.766c0,0.23-0.186,0.416-0.415,0.416l0,0c-0.23,0-0.416-0.186-0.416-0.416V31.67
			c0-0.229,0.186-0.416,0.416-0.416l0,0c0.229,0,0.415,0.187,0.415,0.416V69.766z"/>
	</g>
	<g>
		<path fill="#8CCBF0" d="M96.312,47.508l3.571-21.033h5.412l4.212,11.214l4.185-11.214h5.412l3.571,21.033h-5.44l-1.813-12.107
			l-4.965,12.107h-2.176l-4.715-12.107l-1.814,12.107H96.312z"/>
		<path fill="#8CCBF0" d="M138.1,31.105h-6.5v3.516h6.138v4.629h-6.138v3.627h6.5v4.63h-11.968V26.475H138.1V31.105z"/>
		<path fill="#8CCBF0" d="M154.923,43.855h-7.812l-1.255,3.654h-5.831l8.008-21.034h5.969l8.007,21.034h-5.831L154.923,43.855z
			 M153.473,39.697l-2.457-7.001l-2.454,7.001H153.473z"/>
		<path fill="#8CCBF0" d="M164.405,47.508V26.475h5.469l10.099,12.858V26.475h5.44v21.033h-5.44l-10.099-12.86v12.86H164.405z"/>
		<path fill="#8CCBF0" d="M195.288,26.475v21.033h-5.468V26.475H195.288z"/>
		<path fill="#8CCBF0" d="M199.695,47.508V26.475h5.466l10.1,12.858V26.475h5.44v21.033h-5.44l-10.1-12.86v12.86H199.695z"/>
		<path fill="#8CCBF0" d="M235.736,35.736h10.854c0,1.116-0.046,2.13-0.141,3.042c-0.093,0.91-0.278,1.757-0.557,2.539
			c-0.392,1.097-0.923,2.068-1.592,2.914c-0.669,0.847-1.455,1.555-2.356,2.121c-0.902,0.568-1.893,1-2.973,1.298
			c-1.077,0.297-2.213,0.446-3.402,0.446c-1.636,0-3.129-0.27-4.477-0.81c-1.349-0.541-2.506-1.298-3.473-2.273
			c-0.968-0.976-1.721-2.147-2.26-3.515c-0.541-1.368-0.81-2.878-0.81-4.533c0-1.638,0.265-3.139,0.796-4.505
			c0.529-1.368,1.282-2.534,2.26-3.501c0.976-0.968,2.151-1.72,3.528-2.26c1.377-0.539,2.91-0.809,4.603-0.809
			c2.195,0,4.119,0.474,5.774,1.422s2.968,2.417,3.935,4.408l-5.19,2.147c-0.482-1.153-1.11-1.98-1.883-2.483
			c-0.771-0.503-1.649-0.754-2.636-0.754c-0.817,0-1.561,0.154-2.23,0.459c-0.671,0.308-1.242,0.744-1.716,1.312
			c-0.475,0.568-0.846,1.251-1.116,2.051c-0.269,0.8-0.403,1.692-0.403,2.677c0,0.893,0.116,1.721,0.348,2.483
			c0.233,0.762,0.581,1.422,1.049,1.98c0.463,0.558,1.041,0.991,1.729,1.298s1.487,0.46,2.398,0.46c0.539,0,1.061-0.06,1.562-0.181
			c0.502-0.121,0.954-0.317,1.354-0.586c0.398-0.269,0.729-0.618,0.989-1.046s0.437-0.949,0.529-1.563h-4.49v-4.237H235.736z"/>
		<path fill="#8CCBF0" d="M262.102,31.105h-6.584v3.516h5.996v4.629h-5.996v8.259h-5.468V26.475h12.052V31.105L262.102,31.105z"/>
		<path fill="#8CCBF0" d="M270.831,26.475v11.437c0,0.614,0.022,1.242,0.071,1.883c0.044,0.641,0.186,1.222,0.417,1.744
			c0.231,0.521,0.601,0.944,1.103,1.269c0.502,0.326,1.209,0.489,2.119,0.489c0.911,0,1.614-0.163,2.106-0.489
			c0.493-0.325,0.859-0.749,1.104-1.269c0.241-0.522,0.384-1.103,0.432-1.744c0.047-0.641,0.07-1.27,0.07-1.883V26.475h5.438v12.19
			c0,3.274-0.75,5.664-2.244,7.169c-1.497,1.506-3.799,2.26-6.904,2.26s-5.412-0.753-6.918-2.26c-1.507-1.505-2.26-3.896-2.26-7.169
			v-12.19H270.831z"/>
		<path fill="#8CCBF0" d="M293.566,26.475v16.403h6.558v4.63H288.1V26.475H293.566z"/>
	</g>
	<g>
		<path fill="#8CCBF0" d="M96.312,74.525l3.571-21.033h5.412l4.212,11.214l4.185-11.214h5.412l3.571,21.033h-5.44l-1.813-12.108
			l-4.965,12.108h-2.176l-4.715-12.108l-1.814,12.108H96.312z"/>
		<path fill="#8CCBF0" d="M139.021,70.871h-7.811l-1.256,3.654h-5.83l8.007-21.035h5.97l8.007,21.035h-5.83L139.021,70.871z
			 M137.57,66.714l-2.455-7.003l-2.455,7.003H137.57z"/>
		<path fill="#8CCBF0" d="M165.997,74.525h-6.808l-5.217-8.091v8.091h-5.467V53.49h8.509c1.17,0,2.193,0.172,3.068,0.516
			c0.873,0.346,1.594,0.813,2.163,1.408c0.566,0.597,0.995,1.284,1.282,2.064c0.288,0.782,0.433,1.62,0.433,2.511
			c0,1.602-0.386,2.899-1.156,3.894c-0.772,0.995-1.912,1.669-3.419,2.022L165.997,74.525z M153.973,62.893h1.033
			c1.078,0,1.906-0.225,2.481-0.671c0.578-0.445,0.865-1.087,0.865-1.923c0-0.837-0.287-1.479-0.865-1.926
			c-0.575-0.446-1.403-0.67-2.481-0.67h-1.033V62.893z"/>
		<path fill="#8CCBF0" d="M173.752,62.166l6.669-8.674h6.75l-8.342,9.958l9.124,11.075h-7.086l-7.115-9.122v9.122h-5.469V53.49
			h5.469V62.166L173.752,62.166z"/>
		<path fill="#8CCBF0" d="M202.345,58.122h-6.499v3.515h6.138v4.632h-6.138v3.628h6.499v4.631h-11.968V53.49h11.968V58.122z"/>
		<path fill="#8CCBF0" d="M214.258,58.122v16.403h-5.467V58.122h-4.493V53.49h14.45v4.632H214.258z"/>
		<path fill="#8CCBF0" d="M226.644,53.49v21.035h-5.468V53.49H226.644z"/>
		<path fill="#8CCBF0" d="M231.051,74.525V53.49h5.468l10.1,12.861V53.49h5.438v21.035h-5.438l-10.1-12.861v12.861H231.051
			L231.051,74.525z"/>
		<path fill="#8CCBF0" d="M267.092,62.751h10.854c0,1.118-0.046,2.131-0.141,3.042c-0.093,0.911-0.278,1.758-0.557,2.538
			c-0.392,1.097-0.923,2.069-1.591,2.917c-0.668,0.844-1.454,1.551-2.356,2.118c-0.901,0.568-1.893,1.001-2.973,1.298
			c-1.077,0.298-2.213,0.446-3.402,0.446c-1.636,0-3.129-0.269-4.477-0.807c-1.349-0.539-2.505-1.298-3.473-2.275
			c-0.968-0.976-1.721-2.147-2.26-3.516c-0.541-1.368-0.81-2.878-0.81-4.533c0-1.636,0.265-3.139,0.796-4.506
			c0.529-1.367,1.282-2.534,2.26-3.501c0.976-0.968,2.151-1.719,3.528-2.26c1.377-0.539,2.91-0.81,4.603-0.81
			c2.195,0,4.119,0.476,5.774,1.424s2.967,2.418,3.934,4.407l-5.188,2.149c-0.483-1.153-1.111-1.981-1.884-2.483
			c-0.771-0.503-1.649-0.756-2.636-0.756c-0.817,0-1.561,0.155-2.23,0.462c-0.671,0.307-1.242,0.745-1.715,1.312
			c-0.476,0.567-0.847,1.251-1.117,2.049c-0.27,0.8-0.403,1.693-0.403,2.679c0,0.893,0.116,1.721,0.348,2.483
			c0.233,0.764,0.581,1.422,1.049,1.981c0.464,0.557,1.041,0.989,1.729,1.297c0.688,0.31,1.487,0.462,2.398,0.462
			c0.539,0,1.061-0.062,1.562-0.182c0.502-0.121,0.954-0.316,1.354-0.588c0.398-0.268,0.729-0.618,0.989-1.047
			c0.261-0.427,0.437-0.948,0.529-1.562h-4.49v-4.239H267.092z"/>
	</g>
	<g>
		<path fill="#808285" d="M100.233,90.35c-2.218,0-4.15-1.613-4.15-4.222c0-2.609,1.933-4.222,4.15-4.222
			c2.229,0,4.151,1.612,4.151,4.222C104.385,88.736,102.463,90.35,100.233,90.35z M100.233,82.476c-1.862,0-3.475,1.339-3.475,3.641
			c0,2.276,1.625,3.629,3.475,3.629c1.874,0,3.487-1.353,3.487-3.629C103.721,83.827,102.107,82.476,100.233,82.476z"/>
		<path fill="#808285" d="M110.023,90.207h-0.616v-0.889c-0.356,0.651-1.008,1.008-1.779,1.008c-0.771,0-1.198-0.249-1.482-0.617
			c-0.284-0.368-0.415-0.961-0.415-1.731v-3.272h0.617v3.367c0,0.831,0.154,1.72,1.364,1.72c1.222,0,1.696-1.066,1.696-2.134v-2.953
			h0.616V90.207z"/>
		<path fill="#808285" d="M114.059,90.148c0,0-0.296,0.178-0.83,0.178c-0.534,0-0.842-0.226-1.044-0.593
			c-0.189-0.368-0.201-0.771-0.201-1.661v-2.787h-0.831v-0.557h0.831v-1.756h0.628v1.756h1.388v0.557H112.6v3.155
			c0,0.604,0.071,1.329,0.806,1.329c0.356,0,0.593-0.155,0.593-0.155L114.059,90.148z"/>
		<path fill="#808285" d="M120.05,85.298c-0.13-0.048-0.296-0.096-0.593-0.096c-0.534,0-0.854,0.368-0.949,0.499
			c-0.095,0.13-0.392,0.593-0.392,1.542v2.964H117.5v-5.502h0.617v1.031c0.202-0.747,0.807-1.127,1.4-1.127
			c0.355,0,0.593,0.083,0.593,0.083L120.05,85.298z"/>
		<path fill="#808285" d="M124.618,90.207h-0.628v-0.771c-0.201,0.237-0.794,0.89-1.862,0.89c-1.068,0-1.838-0.712-1.838-1.661
			c0-0.948,0.711-1.601,2.194-1.659l1.506-0.06V86.65c0-1.009-0.676-1.507-1.542-1.507c-0.854,0-1.506,0.38-1.625,0.475
			l-0.237-0.451c0.356-0.236,1.008-0.558,1.838-0.558c0.83,0,1.328,0.261,1.661,0.617c0.32,0.355,0.533,0.771,0.533,1.72V90.207z
			 M123.99,87.421l-1.565,0.095c-1.15,0.06-1.519,0.557-1.519,1.149c0,0.594,0.451,1.127,1.341,1.127
			c0.89,0,1.482-0.593,1.743-1.008V87.421z"/>
		<path fill="#808285" d="M130.623,90.207h-0.629v-3.261c0-0.889-0.154-1.803-1.34-1.803s-1.755,1.031-1.755,2.336v2.728h-0.617
			v-5.502h0.617v1.02c0.272-0.652,0.984-1.115,1.779-1.115c1.578,0,1.945,1.009,1.945,2.312V90.207z"/>
		<path fill="#808285" d="M136.792,90.207h-0.771l-2.253-3.024l-0.748,0.689v2.335h-0.617v-8.183h0.617v5.158l2.645-2.478h0.771
			l-2.253,2.099L136.792,90.207z"/>
		<path fill="#808285" d="M144.269,84.705l-2.787,6.783c-0.379,0.913-0.854,1.032-1.234,1.032c-0.379,0-0.664-0.144-0.664-0.144
			l0.119-0.593c0,0,0.212,0.119,0.545,0.119c0.332,0,0.559-0.119,0.819-0.865l0.32-0.914l-2.218-5.419h0.652l1.898,4.791
			l1.897-4.791H144.269z"/>
		<path fill="#808285" d="M147.556,90.326c-1.565,0-2.811-1.186-2.811-2.847c0-1.66,1.246-2.87,2.811-2.87
			c1.577,0,2.822,1.21,2.822,2.87C150.378,89.141,149.132,90.326,147.556,90.326z M147.556,85.144c-1.329,0-2.158,1.031-2.158,2.312
			c0,1.27,0.829,2.313,2.158,2.313c1.34,0,2.169-1.044,2.169-2.313C149.725,86.175,148.896,85.144,147.556,85.144z"/>
		<path fill="#808285" d="M155.979,90.207h-0.616v-0.889c-0.357,0.651-1.008,1.008-1.779,1.008c-0.772,0-1.199-0.249-1.482-0.617
			c-0.284-0.368-0.416-0.961-0.416-1.731v-3.272h0.616v3.367c0,0.831,0.155,1.72,1.366,1.72c1.22,0,1.695-1.066,1.695-2.134v-2.953
			h0.616V90.207z"/>
		<path fill="#808285" d="M160.312,85.298c-0.132-0.048-0.296-0.096-0.593-0.096c-0.533,0-0.854,0.368-0.949,0.499
			c-0.094,0.13-0.392,0.593-0.392,1.542v2.964h-0.616v-5.502h0.616v1.031c0.201-0.747,0.808-1.127,1.4-1.127
			c0.355,0,0.593,0.083,0.593,0.083L160.312,85.298z"/>
		<path fill="#808285" d="M168.226,89.377c-0.203,0.237-0.772,0.949-2.254,0.949c-1.483,0-2.692-1.186-2.692-2.87
			c0-1.695,1.304-2.847,2.75-2.847c1.461,0,2.054,0.795,2.171,0.949l-0.39,0.415c-0.237-0.272-0.713-0.807-1.804-0.807
			c-1.103,0-2.074,0.891-2.074,2.254s0.854,2.349,2.097,2.349c1.246,0,1.839-0.808,1.839-0.808L168.226,89.377z"/>
		<path fill="#808285" d="M171.668,90.326c-1.566,0-2.812-1.186-2.812-2.847c0-1.66,1.246-2.87,2.812-2.87
			c1.576,0,2.822,1.21,2.822,2.87C174.49,89.141,173.244,90.326,171.668,90.326z M171.668,85.144c-1.328,0-2.159,1.031-2.159,2.312
			c0,1.27,0.831,2.313,2.159,2.313c1.341,0,2.169-1.044,2.169-2.313C173.837,86.175,173.009,85.144,171.668,85.144z"/>
		<path fill="#808285" d="M183.353,90.207h-0.616v-3.344c0-0.688-0.119-1.72-1.186-1.72c-1.068,0-1.638,1.031-1.638,2.194v2.869
			h-0.616v-3.344c0-0.925-0.237-1.72-1.186-1.72c-1.068,0-1.636,1.031-1.636,2.194v2.869h-0.618v-5.502h0.618v1.02
			c0.224-0.605,0.925-1.115,1.658-1.115c0.867,0,1.4,0.439,1.638,1.151c0.355-0.712,1.009-1.151,1.742-1.151
			c1.519,0,1.839,1.151,1.839,2.254V90.207z"/>
		<path fill="#808285" d="M187.829,90.326c-0.796,0-1.541-0.32-2.076-1.15v3.284h-0.616v-7.755h0.616v1.067
			c0.464-0.783,1.223-1.163,2.053-1.163c1.696,0,2.728,1.246,2.728,2.87C190.533,89.116,189.465,90.326,187.829,90.326z
			 M187.806,85.144c-1.34,0-2.076,1.044-2.076,2.336c0,1.257,0.736,2.29,2.076,2.29c1.327,0,2.074-1.009,2.074-2.29
			C189.88,86.211,189.133,85.144,187.806,85.144z"/>
		<path fill="#808285" d="M196.609,87.599h-4.472c0.061,1.305,0.796,2.171,2.04,2.171c1.245,0,1.933-0.712,1.933-0.712l0.298,0.438
			c0,0-0.688,0.83-2.289,0.83c-1.601,0-2.634-1.186-2.634-2.87c0-1.695,1.211-2.847,2.669-2.847c1.446,0,2.491,1.092,2.491,2.573
			C196.646,87.36,196.609,87.599,196.609,87.599z M196.016,87.064c0-0.711-0.532-1.921-1.896-1.921c-1.365,0-1.921,1.15-1.958,1.921
			H196.016z"/>
		<path fill="#808285" d="M200.207,90.148c0,0-0.298,0.178-0.83,0.178c-0.535,0-0.843-0.226-1.045-0.593
			c-0.189-0.368-0.201-0.771-0.201-1.661v-2.787h-0.83v-0.557h0.83v-1.756h0.628v1.756h1.389v0.557h-1.4v3.155
			c0,0.604,0.071,1.329,0.807,1.329c0.355,0,0.594-0.155,0.594-0.155L200.207,90.148z"/>
		<path fill="#808285" d="M201.644,83.258c-0.285,0-0.51-0.225-0.51-0.51s0.225-0.51,0.51-0.51c0.284,0,0.51,0.225,0.51,0.51
			S201.928,83.258,201.644,83.258z M201.951,90.207h-0.616v-5.502h0.616V90.207z"/>
		<path fill="#808285" d="M206.045,90.148c0,0-0.297,0.178-0.83,0.178c-0.535,0-0.842-0.226-1.045-0.593
			c-0.189-0.368-0.201-0.771-0.201-1.661v-2.787h-0.83v-0.557h0.83v-1.756h0.628v1.756h1.389v0.557h-1.4v3.155
			c0,0.604,0.071,1.329,0.808,1.329c0.355,0,0.593-0.155,0.593-0.155L206.045,90.148z"/>
		<path fill="#808285" d="M207.483,83.258c-0.286,0-0.511-0.225-0.511-0.51s0.225-0.51,0.511-0.51c0.283,0,0.51,0.225,0.51,0.51
			S207.767,83.258,207.483,83.258z M207.79,90.207h-0.616v-5.502h0.616V90.207z"/>
		<path fill="#808285" d="M212.025,90.326c-1.564,0-2.81-1.186-2.81-2.847c0-1.66,1.245-2.87,2.81-2.87
			c1.578,0,2.824,1.21,2.824,2.87C214.85,89.141,213.604,90.326,212.025,90.326z M212.025,85.144c-1.328,0-2.157,1.031-2.157,2.312
			c0,1.27,0.829,2.313,2.157,2.313c1.341,0,2.171-1.044,2.171-2.313C214.196,86.175,213.366,85.144,212.025,85.144z"/>
		<path fill="#808285" d="M220.556,90.207h-0.627v-3.261c0-0.889-0.155-1.803-1.341-1.803s-1.755,1.031-1.755,2.336v2.728h-0.616
			v-5.502h0.616v1.02c0.271-0.652,0.984-1.115,1.778-1.115c1.578,0,1.944,1.009,1.944,2.312V90.207z"/>
	</g>
</g>
</svg>
